<svg width="50" height="50" viewBox="0 0 50 50" fill="none" xmlns="http://www.w3.org/2000/svg">
<path d="M6.25 22.9167L11.4167 10.8583C11.7382 10.1083 12.2728 9.46926 12.9543 9.02039C13.6357 8.57151 14.434 8.33262 15.25 8.33335H34.7542C35.5695 8.33344 36.3668 8.57271 37.0475 9.02153C37.7281 9.47035 38.2621 10.109 38.5833 10.8583L43.75 22.9167M6.25 22.9167H43.75M6.25 22.9167V37.5M43.75 22.9167V37.5M6.25 37.5V38.5417C6.25 39.3705 6.57924 40.1653 7.16529 40.7514C7.75134 41.3374 8.5462 41.6667 9.375 41.6667C10.2038 41.6667 10.9987 41.3374 11.5847 40.7514C12.1708 40.1653 12.5 39.3705 12.5 38.5417V37.5M6.25 37.5H12.5M43.75 37.5V38.5417C43.75 39.3705 43.4208 40.1653 42.8347 40.7514C42.2487 41.3374 41.4538 41.6667 40.625 41.6667C39.7962 41.6667 39.0013 41.3374 38.4153 40.7514C37.8292 40.1653 37.5 39.3705 37.5 38.5417V37.5M43.75 37.5H37.5M37.5 37.5H12.5" stroke="#0D99FF" stroke-width="2" stroke-linecap="round" stroke-linejoin="round"/>
<path fill-rule="evenodd" clip-rule="evenodd" d="M6.25 22.9167H43.75V37.5H6.25V22.9167ZM12.5 29.1667C12.5 28.6142 12.7195 28.0842 13.1102 27.6935C13.5009 27.3028 14.0308 27.0834 14.5833 27.0834C15.1359 27.0834 15.6679 27.3028 16.0586 27.6935C16.4493 28.0842 16.6688 28.6142 16.6688 29.1667C16.6688 29.7192 16.4493 30.2491 16.0586 30.6398C15.6679 31.0305 15.138 31.25 14.5854 31.25C14.0329 31.25 13.5009 31.0305 13.1102 30.6398C12.7195 30.2491 12.5 29.7192 12.5 29.1667ZM35.4167 27.0834C34.8641 27.0834 34.3342 27.3028 33.9435 27.6935C33.5528 28.0842 33.3333 28.6142 33.3333 29.1667C33.3333 29.7192 33.5528 30.2491 33.9435 30.6398C34.3342 31.0305 34.8641 31.25 35.4167 31.25C35.9692 31.25 36.5012 31.0305 36.8919 30.6398C37.2826 30.2491 37.5021 29.7192 37.5021 29.1667C37.5021 28.6142 37.2826 28.0842 36.8919 27.6935C36.5012 27.3028 35.9692 27.0834 35.4167 27.0834Z" fill="#0D99FF"/>
</svg>
